<?xml version="1.0"?>
<svg xmlns="http://www.w3.org/2000/svg" viewBox="0 0 512 512" width="512" height="512"><g id="outline"><path d="M279.029,224a24.809,24.809,0,0,0-17.656,7.313L256,236.687l-5.373-5.374a24.971,24.971,0,0,0-35.313,35.315l35.029,35.029a8,8,0,0,0,11.314,0l35.029-35.029A24.971,24.971,0,0,0,279.029,224Zm6.344,31.313L256,284.687l-29.373-29.374a8.97,8.97,0,1,1,12.687-12.685l11.029,11.029a8,8,0,0,0,11.314,0l11.029-11.029a8.97,8.97,0,1,1,12.687,12.685Z"/><path d="M400,256c0-79.4-64.6-144-144-144S112,176.6,112,256s64.6,144,144,144S400,335.4,400,256ZM256,384A128,128,0,1,1,384,256,128.145,128.145,0,0,1,256,384Z"/><path d="M256,160a96,96,0,1,0,96,96A96.108,96.108,0,0,0,256,160Zm0,176a80,80,0,1,1,80-80A80.091,80.091,0,0,1,256,336Z"/><path d="M32,344a24,24,0,0,0,48,0V203.176a62.166,62.166,0,0,0,16-41.8V128a8,8,0,0,0-16,0v32H64V128a8,8,0,0,0-16,0v32H32V128a8,8,0,0,0-16,0v33.373a62.166,62.166,0,0,0,16,41.8Zm32,0a8,8,0,0,1-16,0V288H64Zm0-72H48V208H64Zm13.667-96a46.3,46.3,0,0,1-9.133,16H43.466a46.3,46.3,0,0,1-9.133-16Z"/><path d="M456,120a40.045,40.045,0,0,0-40,40v16a40.146,40.146,0,0,0,16,31.988V344a24,24,0,0,0,48,0V207.988A40.146,40.146,0,0,0,496,176V160A40.045,40.045,0,0,0,456,120Zm8,224a8,8,0,0,1-16,0V288h16Zm16-168a24.1,24.1,0,0,1-12.007,20.784A8,8,0,0,0,464,203.708V272H448V203.708a8,8,0,0,0-3.993-6.924A24.1,24.1,0,0,1,432,176V160a24,24,0,0,1,48,0Z"/></g></svg>
