<?xml version="1.0" encoding="utf-8"?>
<!-- Generator: Adobe Illustrator 23.0.5, SVG Export Plug-In . SVG Version: 6.00 Build 0)  -->
<svg version="1.1" id="Layer_1" xmlns="http://www.w3.org/2000/svg" xmlns:xlink="http://www.w3.org/1999/xlink" x="0px" y="0px"
	 viewBox="0 0 900 900" style="enable-background:new 0 0 900 900;" xml:space="preserve">
<style type="text/css">
	.st0{opacity:0;fill:#123666;}
	.st1{fill:#5DD1F9;}
	.st2{fill:#9FDD4E;}
	.st3{fill:#FF6700;}
	.st4{fill:#FFFFFF;}
</style>
<title>gb</title>
<rect x="-12.9" y="-8.1" class="st0" width="925.9" height="916.2"/>
<path class="st1" d="M289.5,498.8L420,524.7V264.9l-130.5,30.5V498.8z M314.8,346.4L314.8,346.4c0.5-1.4,0.9-2.7,1.3-4.1
	c0.5-1.5,1-3.1,1.5-4.6c1.7-5.1,3.2-9.6,4.8-13.9l1.2-3.4h58.5l1.2,3.4c1.5,4.3,3.1,8.8,4.8,13.9c0.5,1.5,1,3.1,1.5,4.7
	c0.4,1.3,0.9,2.7,1.3,4l0,0c4.5,13.6,7.7,28,0.9,40.8c-2.7,4.9-6.4,9.3-10.7,12.9c-4.4,3.8-9.4,6.8-14.8,9c-1.7,0.7-3.4,1.3-5.1,1.8
	c-0.8,0.2-1.5,0.4-2.2,0.5l-1,0.2h-0.5l-0.4,0.1c-0.7,0.2-1.6,0.3-2.1,0.9c-0.3,0.4-0.6,0.8-0.7,1.3v55.9c0,0,0.1,1.6,0.2,2.3
	c0.2,2.9,1.2,5.8,2.9,8.2c2.7,3.7,7.2,5.4,11.5,6.6c2.9,0.9,5.8,1.6,8.8,2c0.3,0,1.6,0.2,1.5,0.6s-1,0.5-1.2,0.5
	c-6.6,1-13.4,1.4-20.1,1.3c-1.7,0-3.3,0-5,0s-3.3,0-5,0c-6.7,0.1-13.4-0.4-20.1-1.3c-0.3,0-1.2-0.1-1.2-0.5s1.2-0.6,1.5-0.6
	c3-0.4,5.9-1.1,8.8-2c4.3-1.2,8.8-2.9,11.5-6.6c1.7-2.4,2.7-5.3,2.9-8.2c0.1-0.8,0.2-2.3,0.2-2.3v-56.1c-0.1-0.4-0.3-0.8-0.6-1.1
	c-0.6-0.5-1.3-0.8-2.1-0.9l-0.4-0.1h-0.6l-1-0.2c-0.7-0.1-1.4-0.3-2.2-0.5c-1.7-0.5-3.4-1.1-5.1-1.8c-5.4-2.2-10.3-5.2-14.8-9
	c-4.3-3.6-7.9-7.9-10.7-12.8C307.1,374.3,310.3,360,314.8,346.4z"/>
<path class="st2" d="M410.4,231.4V559L541,520.6l-26.8-269.6L410.4,231.4z M478.8,354.7c-1.1,7.9-5.8,10.4-7.5,14.1
	s-2.6,2.8-2.8,10.5s-0.4,41.3,0.7,53.7s3.6,30.5,5.1,38.3s4.2,19.3,0.4,24c-2.5,3-6,5-9.8,5.6h-0.2c-3.8-0.7-7.3-2.7-9.8-5.6
	c-3.8-4.7-1.1-16.2,0.4-24s4-25.9,5.1-38.3s1-46,0.7-53.7s-1.1-6.8-2.8-10.5s-6.4-6.2-7.5-14.1s1.1-26.2,2.7-43.9s1.7-14.4,1.7-12
	s-0.2,46.1,0.1,48.5s3.7,1.9,4,0s0.4-3.3,1-12.8s1.1-37.8,1.6-37.6s1.2,48.4,1.2,50.7c0,2.1,1.4,1.8,1.8,1.8h0
	c0.4,0,1.7,0.3,1.7-1.8c0.1-2.3,0.8-50.6,1.3-50.7s0.9,28.1,1.5,37.6s0.7,11,1,12.8s3.6,2.3,4,0s0.1-46,0.1-48.5s0.1-5.8,1.7,12
	S479.9,346.8,478.8,354.7z"/>
<path class="st3" d="M509.1,272.9L533.7,527l78.2-2.3V251.9C611.8,251.9,511.9,272.9,509.1,272.9z M586.7,465.4
	C584,484,575,492.1,571.9,495c-3.5,3.3-9,3.3-12.5,0c-3.2-2.9-12.1-11.1-14.9-29.6s6.4-27.6,13.3-31.8s4.5-15.8,4.2-24.9
	s-1.2-41.5-2.5-52.6s-6.4-32.6-6.9-38.5s-0.5-17.5,11.3-17.5h3.3c11.8,0,11.8,11.6,11.3,17.5s-5.7,27.4-6.9,38.5s-2.2,43.4-2.5,52.6
	s-2.7,20.7,4.2,24.9S589.4,446.9,586.7,465.4z"/>
<path class="st4" d="M339.3,629.6h7.2c6,0,9,3.3,9,8c0,3.1-1.3,5.6-4.1,6.9l5.8,7.6h-4.6l-4.8-6.6c-0.6,0.1-1.3,0.1-2,0.1h-2.5v6.5
	h-4L339.3,629.6z M343.3,633.2v8.8h3c3.7,0,5-2,5-4.5s-1.3-4.3-5-4.3L343.3,633.2z"/>
<path class="st4" d="M363.5,629.6h14.6v3.7h-10.7v6.3h9.7v3.5h-9.7v5.4h10.7v3.6h-14.6V629.6z"/>
<path class="st4" d="M391.4,652.5c-2.6,0-5.1-0.8-7.4-2.2l1.4-3.6c1.8,1.2,3.9,1.9,6.1,2c2.7,0,3.9-1.3,3.9-2.8s-0.8-2.4-4.9-3.9
	c-4.4-1.6-5.9-3.7-5.9-6.4c0-3.4,2.8-6.5,7.5-6.5c2.2,0,4.3,0.5,6.2,1.5l-1.3,3.5c-1.5-0.9-3.2-1.4-5-1.5c-2.4,0-3.5,1.3-3.5,2.9
	s1.2,2.3,4.4,3.5c5,2,6.5,3.9,6.5,6.9C399.5,650,396.5,652.5,391.4,652.5z"/>
<path class="st4" d="M403.5,629.6h18.9v3.7H415v18.8h-4v-18.9h-7.5L403.5,629.6z"/>
<path class="st4" d="M427.6,652.1h-4.2l10.6-22.7h0.9l10.6,22.7h-4.3l-2-4.5h-9.7L427.6,652.1z M431,644.4h6.9l-3.4-7.7L431,644.4z"
	/>
<path class="st4" d="M450.3,629.6h4v13.2c0,4.3,2,6.1,5.4,6.1s5.5-1.8,5.5-6.1v-13.2h4v13.2c0,6.7-3.8,9.7-9.4,9.7s-9.3-3-9.3-9.7
	L450.3,629.6z"/>
<path class="st4" d="M477.3,629.6h7.2c6,0,9,3.3,9,8c0,3.1-1.3,5.6-4.1,6.9l5.8,7.6h-4.6l-4.8-6.6c-0.6,0.1-1.3,0.1-2,0.1h-2.5v6.5
	h-4L477.3,629.6z M481.3,633.2v8.8h3c3.7,0,5-2,5-4.5s-1.3-4.3-5-4.3L481.3,633.2z"/>
<path class="st4" d="M502.8,652.1h-4.2l10.6-22.7h0.9l10.6,22.7h-4.3l-2-4.5h-9.7L502.8,652.1z M506.2,644.4h6.8l-3.4-7.7
	L506.2,644.4z"/>
<path class="st4" d="M526.4,629.5h1.2l13.9,14.5v-14.4h4v22.7h-1.1l-14.1-14.1v14h-4L526.4,629.5z"/>
<path class="st4" d="M551.3,629.6h18.9v3.7h-7.4v18.8h-4v-18.9h-7.5L551.3,629.6z"/>
<path class="st3" d="M442.6,617.3h-8.1l-0.5-3.8c-0.6,0.6-1.2,1.2-1.8,1.8c-0.8,0.6-1.6,1.1-2.5,1.5c-1,0.4-2.1,0.8-3.2,1
	c-1.3,0.3-2.7,0.4-4.1,0.4c-1.6,0-3.2-0.2-4.8-0.5c-1.5-0.4-3-0.9-4.4-1.6c-1.4-0.7-2.7-1.6-3.8-2.7c-1.2-1.1-2.2-2.4-3-3.8
	c-0.9-1.6-1.6-3.3-2-5c-0.5-2-0.7-4.1-0.7-6.1c0-2.9,0.4-5.7,1.4-8.4c0.9-2.4,2.2-4.7,4-6.5c1.8-1.8,4-3.3,6.4-4.2
	c2.7-1,5.5-1.6,8.4-1.5c2.2,0,4.4,0.3,6.5,0.9c2,0.6,3.8,1.5,5.5,2.7c1.6,1.2,3,2.7,4,4.5c1.1,1.9,1.9,4,2.2,6.2h-12
	c-0.4-1.4-1.2-2.7-2.4-3.6c-1.2-0.9-2.7-1.3-4.1-1.3c-1.1,0-2.3,0.3-3.3,0.8c-0.9,0.6-1.7,1.4-2.3,2.3c-0.7,1.1-1.1,2.3-1.4,3.6
	c-0.3,1.5-0.5,3.1-0.5,4.6c0,1.3,0.1,2.6,0.4,3.9c0.2,1.2,0.6,2.3,1.3,3.3c0.6,1,1.5,1.8,2.5,2.3c1.2,0.6,2.6,0.9,3.9,0.9
	c0.7,0,1.4-0.1,2-0.3c0.7-0.2,1.4-0.5,2-0.9c0.6-0.4,1.1-0.9,1.6-1.4c0.4-0.5,0.8-1.2,0.9-1.8h-5.6V596h17.3L442.6,617.3z"/>
<path class="st3" d="M450.1,617.2v-38.5h18.4c2,0,4.1,0.1,6.1,0.5c1.7,0.2,3.4,0.8,5,1.5c2.9,1.4,4.7,4.4,4.5,7.7
	c0,0.9-0.1,1.9-0.5,2.8c-0.3,0.8-0.7,1.6-1.1,2.3c-0.5,0.7-1,1.3-1.6,1.9c-0.6,0.5-1.2,1-1.9,1.4c1.9,0.5,3.6,1.6,4.8,3.3
	c0.5,0.8,0.9,1.7,1.2,2.6c0.3,1,0.4,2,0.4,3c0.1,1.9-0.4,3.7-1.2,5.4c-0.8,1.5-1.9,2.7-3.4,3.6c-1.6,1-3.4,1.7-5.2,2
	c-2.2,0.4-4.5,0.6-6.8,0.6L450.1,617.2z M462.7,587.7v6.4h5.2c1.1,0,2.2-0.2,3.1-0.8c0.8-0.6,1.3-1.5,1.2-2.5c0-0.6-0.1-1.2-0.4-1.7
	c-0.3-0.4-0.7-0.7-1.1-0.9c-0.5-0.2-1.1-0.3-1.6-0.3c-0.6,0-1.3,0-1.9,0L462.7,587.7z M462.7,601.1v7.1h5.5c0.7,0,1.4,0,2.2-0.2
	c0.6-0.1,1.2-0.3,1.7-0.5c0.5-0.2,0.9-0.6,1.1-1.1c0.3-0.5,0.4-1.1,0.4-1.8c0-0.7-0.1-1.4-0.5-2c-0.4-0.5-0.9-0.9-1.5-1.1
	c-0.7-0.3-1.4-0.4-2.2-0.5c-0.9-0.1-1.8-0.1-2.8-0.1L462.7,601.1z"/>
</svg>
