<svg id="Layer_1" data-name="Layer 1" xmlns="http://www.w3.org/2000/svg" viewBox="0 0 158.18 206.4"><defs><style>.cls-1{fill:#fff;}</style></defs><title>gb-restaurant</title><path class="cls-1" d="M328.5,376.44l64.07,12.71V261.66l-64.07,15ZM341,301.65v0l.64-2,.75-2.28c.82-2.48,1.58-4.71,2.33-6.82l.59-1.66H374l.59,1.66c.75,2.1,1.52,4.33,2.34,6.82l.75,2.29.63,2v0c2.22,6.69,3.8,13.74.44,20a21.75,21.75,0,0,1-5.27,6.32,27.07,27.07,0,0,1-7.25,4.39,23.75,23.75,0,0,1-2.49.87c-.37.11-.74.19-1.06.26l-.5.11h-.26l-.21,0a1.78,1.78,0,0,0-1,.41,1.34,1.34,0,0,0-.32.63v27.42s0,.77.09,1.15a8.17,8.17,0,0,0,1.4,4c1.34,1.82,3.56,2.66,5.65,3.24a30,30,0,0,0,4.3,1c.13,0,.77.08.73.32s-.47.22-.6.24a63.68,63.68,0,0,1-9.85.65H357.2a63.6,63.6,0,0,1-9.85-.65c-.14,0-.58-.06-.61-.24s.6-.3.74-.32a30.36,30.36,0,0,0,4.3-1c2.09-.58,4.31-1.42,5.64-3.24a8.08,8.08,0,0,0,1.41-4c0-.38.09-1.15.09-1.15V334.6a1.48,1.48,0,0,0-.3-.54,1.81,1.81,0,0,0-1-.41l-.21,0h-.29l-.49-.11c-.32-.07-.69-.15-1.07-.26a25.47,25.47,0,0,1-2.49-.87,27.18,27.18,0,0,1-7.24-4.39,21.75,21.75,0,0,1-5.27-6.32C337.16,315.37,338.74,308.32,341,301.65Z" transform="translate(-328.5 -245.21)"/><path class="cls-1" d="M387.83,245.21V406l64.06-18.86L438.76,254.82Zm33.57,60.52c-.54,3.87-2.84,5.08-3.69,6.9s-1.27,1.4-1.39,5.15-.18,20.28.36,26.34,1.76,14.95,2.48,18.77,2.06,9.45.19,11.75a8.17,8.17,0,0,1-4.82,2.77h-.09a8.2,8.2,0,0,1-4.82-2.77c-1.87-2.3-.54-7.94.18-11.75s1.94-12.72,2.49-18.77.48-22.59.36-26.34-.54-3.33-1.39-5.15-3.15-3-3.7-6.9.55-12.84,1.34-21.56.84-7.08.84-5.87-.12,22.64.06,23.8a1,1,0,0,0,1.94,0c.12-.91.18-1.64.49-6.3s.54-18.53.78-18.47.58,23.77.61,24.89.69.86.86.86h0c.18,0,.82.15.85-.86s.4-24.83.65-24.9.44,13.82.74,18.48.37,5.39.49,6.3,1.75,1.15,1.93,0,.06-22.59.06-23.8.06-2.85.85,5.87S422,301.85,421.4,305.73Z" transform="translate(-328.5 -245.21)"/><path class="cls-1" d="M436.25,265.59l12.07,124.68,38.36-1.12V255.31S437.64,265.59,436.25,265.59Zm38.1,94.48c-1.33,9.08-5.73,13.08-7.28,14.51a4.5,4.5,0,0,1-6.16,0c-1.55-1.43-6-5.43-7.28-14.51s3.14-13.57,6.54-15.63,2.18-7.75,2.05-12.23-.6-20.34-1.21-25.79-3.15-16-3.39-18.89-.24-8.6,5.57-8.6h1.6c5.81,0,5.81,5.69,5.57,8.6S467.57,301,467,306.42s-1.09,21.31-1.22,25.79-1.33,10.18,2.06,12.23S475.68,351,474.35,360.07Z" transform="translate(-328.5 -245.21)"/><path class="cls-1" d="M348.19,440.37h3.53c2.94,0,4.41,1.62,4.41,3.93a3.43,3.43,0,0,1-2,3.37l2.83,3.74h-2.28l-2.34-3.25c-.31,0-.64,0-1,0h-1.21v3.2h-1.94Zm1.94,1.79v4.32h1.45c1.82,0,2.45-1,2.45-2.18s-.61-2.14-2.45-2.14Z" transform="translate(-328.5 -245.21)"/><path class="cls-1" d="M360,440.37h7.18v1.79H362v3.1h4.74V447H362v2.64h5.23v1.79H360Z" transform="translate(-328.5 -245.21)"/><path class="cls-1" d="M373.75,451.6a7.19,7.19,0,0,1-3.61-1.05l.68-1.76a5.61,5.61,0,0,0,3,1c1.3,0,1.9-.65,1.9-1.35s-.41-1.18-2.41-1.92-2.89-1.8-2.89-3.12c0-1.67,1.36-3.21,3.71-3.21a6.49,6.49,0,0,1,3.05.76l-.63,1.72a5.53,5.53,0,0,0-2.47-.73c-1.16,0-1.69.64-1.69,1.41s.59,1.15,2.15,1.71c2.47,1,3.17,1.93,3.17,3.38C377.71,450.39,376.22,451.6,373.75,451.6Z" transform="translate(-328.5 -245.21)"/><path class="cls-1" d="M379.68,440.37H389v1.79h-3.63v9.25h-2v-9.25h-3.69Z" transform="translate(-328.5 -245.21)"/><path class="cls-1" d="M391.53,451.41h-2l5.18-11.13h.44l5.19,11.13h-2.09l-1-2.2h-4.74Zm1.65-3.75h3.36l-1.68-3.8Z" transform="translate(-328.5 -245.21)"/><path class="cls-1" d="M402.64,440.37h1.94v6.47c0,2.11,1,3,2.63,3s2.68-.88,2.68-3v-6.46h1.95v6.47c0,3.3-1.87,4.78-4.63,4.78s-4.57-1.48-4.57-4.78Z" transform="translate(-328.5 -245.21)"/><path class="cls-1" d="M415.89,440.37h3.53c2.94,0,4.42,1.62,4.42,3.93a3.44,3.44,0,0,1-2,3.37l2.82,3.74h-2.27L420,448.16c-.32,0-.65,0-1,0h-1.21v3.2h-1.95Zm1.95,1.79v4.32h1.44c1.82,0,2.45-1,2.45-2.18s-.61-2.14-2.45-2.14Z" transform="translate(-328.5 -245.21)"/><path class="cls-1" d="M428.41,451.41h-2l5.18-11.13H432l5.18,11.13h-2.09l-1-2.2h-4.74Zm1.65-3.75h3.36l-1.68-3.8Z" transform="translate(-328.5 -245.21)"/><path class="cls-1" d="M440,440.31h.61l6.83,7.11v-7.05h1.95v11.12h-.52l-6.93-6.93v6.85H440Z" transform="translate(-328.5 -245.21)"/><path class="cls-1" d="M452.18,440.37h9.29v1.79h-3.63v9.25h-2v-9.25h-3.7Z" transform="translate(-328.5 -245.21)"/><path class="cls-1" d="M398.89,434.34h-4l-.23-1.86a6.9,6.9,0,0,1-.91.87,5.91,5.91,0,0,1-1.21.74,7.82,7.82,0,0,1-1.57.51,9.37,9.37,0,0,1-2,.19,10.71,10.71,0,0,1-2.35-.26,9,9,0,0,1-2.17-.8,8.07,8.07,0,0,1-1.87-1.33,7.85,7.85,0,0,1-1.47-1.88,9.63,9.63,0,0,1-1-2.43,12.25,12.25,0,0,1-.35-3,11.83,11.83,0,0,1,.69-4.14,9,9,0,0,1,2-3.21,8.79,8.79,0,0,1,3.11-2.09,11,11,0,0,1,4.13-.74,11.45,11.45,0,0,1,3.2.44,8.77,8.77,0,0,1,2.69,1.32,7.7,7.7,0,0,1,2,2.19,8.24,8.24,0,0,1,1.07,3h-5.87a3.22,3.22,0,0,0-1.15-1.78,3.34,3.34,0,0,0-2-.61,3.14,3.14,0,0,0-1.6.4,3.33,3.33,0,0,0-1.12,1.12,5.65,5.65,0,0,0-.67,1.75,11.35,11.35,0,0,0-.22,2.27,10.11,10.11,0,0,0,.18,1.93,4.45,4.45,0,0,0,.64,1.63,3.37,3.37,0,0,0,1.21,1.13,4,4,0,0,0,1.93.42,3.5,3.5,0,0,0,1-.15,3.79,3.79,0,0,0,1-.44,3.22,3.22,0,0,0,.78-.69,1.93,1.93,0,0,0,.45-.89H390.4V423.9h8.49Z" transform="translate(-328.5 -245.21)"/><path class="cls-1" d="M402.53,434.29v-18.9h9a20.14,20.14,0,0,1,3,.21,8,8,0,0,1,2.43.76,3.93,3.93,0,0,1,2.22,3.78,4,4,0,0,1-.22,1.36,4.91,4.91,0,0,1-.56,1.15,5.4,5.4,0,0,1-.79.93,5.68,5.68,0,0,1-.9.69,4.1,4.1,0,0,1,1.36.61,3.8,3.8,0,0,1,1,1,4.39,4.39,0,0,1,.61,1.27,5.49,5.49,0,0,1,.2,1.47,5.6,5.6,0,0,1-.58,2.67,4.72,4.72,0,0,1-1.65,1.76,7.47,7.47,0,0,1-2.56,1,18,18,0,0,1-3.35.29Zm6.2-14.48V423h2.57a2.68,2.68,0,0,0,1.53-.41,1.43,1.43,0,0,0,.59-1.24,1.5,1.5,0,0,0-.21-.86,1.22,1.22,0,0,0-.56-.44,2.63,2.63,0,0,0-.8-.17l-.94,0Zm0,6.59v3.48h2.71a7,7,0,0,0,1.06-.07,2.42,2.42,0,0,0,.85-.26,1.58,1.58,0,0,0,.56-.53,2,2,0,0,0-.05-1.84,1.52,1.52,0,0,0-.71-.52,3.75,3.75,0,0,0-1.09-.22c-.42,0-.87,0-1.37,0Z" transform="translate(-328.5 -245.21)"/></svg>