<?xml version="1.0" encoding="iso-8859-1"?>
<!-- Generator: Adobe Illustrator 19.0.0, SVG Export Plug-In . SVG Version: 6.00 Build 0)  -->
<svg version="1.1" id="Capa_1" xmlns="http://www.w3.org/2000/svg" xmlns:xlink="http://www.w3.org/1999/xlink" x="0px" y="0px"
	 viewBox="0 0 511.999 511.999" style="enable-background:new 0 0 511.999 511.999;" xml:space="preserve">
<path style="fill:#AFB9D2;" d="M275.414,197.457V433.47c0,2.638-2.173,4.776-4.854,4.776h-29.121c-2.681,0-4.854-2.138-4.854-4.776
	V197.457c0-2.638,2.173-4.776,4.854-4.776h29.121C273.241,192.68,275.414,194.82,275.414,197.457z"/>
<path style="fill:#8A90A7;" d="M358.895,178.352v28.657c0,2.638-2.173,4.776-4.854,4.776H157.959c-2.681,0-4.854-2.138-4.854-4.776
	v-28.657c0-2.638,2.173-4.776,4.854-4.776h196.082C356.722,173.576,358.895,175.714,358.895,178.352z M303.564,407.678h-95.129
	c-14.475,0-26.209,11.547-26.209,25.792c0,2.638,2.173,4.776,4.854,4.776h137.84c2.681,0,4.854-2.138,4.854-4.776
	C329.773,419.225,318.039,407.678,303.564,407.678z M138.545,278.653H22.061c-2.681,0-4.854,2.138-4.854,4.776v38.21
	c0,2.638,2.173,4.776,4.854,4.776h116.484c2.681,0,4.854-2.138,4.854-4.776v-38.21C143.398,280.792,141.225,278.653,138.545,278.653
	z M489.939,278.653H373.455c-2.681,0-4.854,2.138-4.854,4.776v38.21c0,2.638,2.173,4.776,4.854,4.776h116.484
	c2.681,0,4.854-2.138,4.854-4.776v-38.21C494.793,280.792,492.62,278.653,489.939,278.653z"/>
<path style="fill:#737AA0;" d="M358.895,178.352v28.657c0,2.638-2.173,4.776-4.854,4.776h-31.063c2.681,0,4.854-2.138,4.854-4.776
	v-28.657c0-2.638-2.173-4.776-4.854-4.776h31.063C356.722,173.576,358.895,175.714,358.895,178.352z"/>
<path style="fill:#D7AF87;" d="M412.137,179.307H99.863c-2.761,0-5-2.239-5-5v-28.21c0-2.761,2.239-5,5-5h312.273
	c2.761,0,5,2.239,5,5v28.21C417.137,177.07,414.898,179.307,412.137,179.307z"/>
<path style="fill:#C49D7A;" d="M417.137,145.874v28.657c0,2.638-2.173,4.776-4.854,4.776h-29.121c2.681,0,4.854-2.138,4.854-4.776
	v-28.657c0-2.638-2.173-4.776-4.854-4.776h29.121C414.964,141.098,417.137,143.236,417.137,145.874z"/>
<path style="fill:#D3754F;" d="M157.959,275.788v9.552c0,7.913-6.519,14.329-14.561,14.329H22.061
	c-8.042,0-14.561-6.415-14.561-14.329V73.275c0-2.638,2.173-4.776,4.854-4.776c18.764,0,33.975,14.969,33.975,33.433v159.526h97.07
	C151.44,261.459,157.959,267.874,157.959,275.788z M499.646,68.499c-18.764,0-33.975,14.969-33.975,33.433v159.526h-97.07
	c-8.041,0-14.561,6.415-14.561,14.329v9.552c0,7.913,6.519,14.329,14.561,14.329h121.338c8.041,0,14.561-6.415,14.561-14.329V73.275
	C504.5,70.637,502.327,68.499,499.646,68.499z"/>
<path style="fill:#A0654B;" d="M46.328,101.932v159.526H41.96c-10.722,0-19.414-8.554-19.414-19.105V101.932
	c0-11.568-5.972-21.763-15.046-27.766v-0.891c0-2.666,2.22-4.782,4.928-4.776C31.158,68.539,46.328,83.492,46.328,101.932z
	 M499.646,68.499c-7.008,0-13.519,2.089-18.929,5.668V285.34c0,7.913-6.519,14.329-14.561,14.329h23.782
	c8.041,0,14.561-6.415,14.561-14.329V73.275C504.5,70.637,502.327,68.499,499.646,68.499z M143.398,261.459h-23.782
	c8.042,0,14.561,6.415,14.561,14.329v9.552c0,7.913-6.519,14.329-14.561,14.329h23.782c8.042,0,14.561-6.415,14.561-14.329v-9.552
	C157.959,267.874,151.44,261.459,143.398,261.459z"/>
<path d="M303.564,404.997h-20.65V221.322h71.127c6.812,0,12.354-5.538,12.354-12.344v-20.596h45.889
	c6.812,0,12.354-5.538,12.354-12.344v-29.064c0-6.807-5.542-12.344-12.354-12.344H99.717c-6.812,0-12.354,5.538-12.354,12.344
	v29.064c0,6.807,5.542,12.344,12.354,12.344h45.889v20.596c0,6.806,5.542,12.344,12.354,12.344h71.127v183.676h-20.65
	c-18.587,0-33.709,15.099-33.709,33.658c0,6.807,5.542,12.344,12.354,12.344h82.51c4.143,0,7.5-3.358,7.5-7.5s-3.357-7.5-7.5-7.5
	h-79.674c1.297-9.034,9.107-16.002,18.52-16.002h95.129c9.412,0,17.223,6.968,18.52,16.002h-23.373c-4.143,0-7.5,3.358-7.5,7.5
	s3.357,7.5,7.5,7.5h26.209c6.812,0,12.354-5.538,12.354-12.344C337.273,420.096,322.151,404.997,303.564,404.997z M160.605,188.382
	h20.32c4.143,0,7.5-3.358,7.5-7.5s-3.357-7.5-7.5-7.5h-78.563V149.63h307.273v23.753H210.048c-4.143,0-7.5,3.358-7.5,7.5
	s3.357,7.5,7.5,7.5h141.347v17.939h-75.98h-38.828h-75.98v-17.939H160.605z M244.086,221.322h23.828v183.676h-23.828V221.322z
	 M143.398,256.701h-89.57V102.408c0-22.833-18.605-41.409-41.474-41.409C5.542,60.999,0,66.537,0,73.343v215.077
	c0,7.581,3.854,14.279,9.707,18.244v18.57c0,5.898,4.164,10.836,9.707,12.051V441.56c0,4.142,3.357,7.5,7.5,7.5s7.5-3.358,7.5-7.5
	v-55.542h91.777v55.542c0,4.142,3.357,7.5,7.5,7.5s7.5-3.358,7.5-7.5V337.288c5.543-1.215,9.707-6.154,9.707-12.051v-16.096
	c8.483-3.072,14.561-11.2,14.561-20.719v-9.688C165.459,266.584,155.563,256.701,143.398,256.701z M15,76.13
	c13.36,1.329,23.828,12.606,23.828,26.278v161.792c0,4.142,3.357,7.5,7.5,7.5h97.07c3.894,0,7.061,3.155,7.061,7.032v9.688
	c0,3.877-3.167,7.032-7.061,7.032H22.061c-3.894,0-7.061-3.155-7.061-7.032C15,288.421,15,76.13,15,76.13z M135.898,322.579H24.707
	v-12.126h111.191L135.898,322.579L135.898,322.579z M34.414,371.021v-33.441h91.777v33.441H34.414z M499.646,60.999
	c-22.869,0-41.475,18.576-41.475,41.409v154.292h-89.57c-12.164,0-22.061,9.884-22.061,22.032v9.688
	c0,9.52,6.078,17.647,14.561,20.719v16.096c0,5.898,4.164,10.836,9.707,12.051v104.275c0,4.142,3.357,7.5,7.5,7.5s7.5-3.358,7.5-7.5
	V386.02h91.777v55.542c0,4.142,3.357,7.5,7.5,7.5s7.5-3.358,7.5-7.5V337.288c5.543-1.215,9.707-6.154,9.707-12.051v-18.57
	c5.853-3.966,9.707-10.664,9.707-18.244V73.343C512,66.537,506.458,60.999,499.646,60.999z M376.102,322.579v-12.126h111.191v12.126
	H376.102z M361.541,278.733c0-3.877,3.167-7.032,7.061-7.032h97.07c4.143,0,7.5-3.358,7.5-7.5V102.408
	c0-13.671,10.468-24.949,23.828-26.278v212.291c0,3.877-3.167,7.032-7.061,7.032H368.602c-3.894,0-7.061-3.155-7.061-7.032V278.733z
	 M385.809,371.021v-33.441h91.777v33.441H385.809z"/>
<g>
</g>
<g>
</g>
<g>
</g>
<g>
</g>
<g>
</g>
<g>
</g>
<g>
</g>
<g>
</g>
<g>
</g>
<g>
</g>
<g>
</g>
<g>
</g>
<g>
</g>
<g>
</g>
<g>
</g>
</svg>
