<svg height="512" viewBox="0 0 64 64" width="512" xmlns="http://www.w3.org/2000/svg"><g id="Flat"><path d="m62 16.993v44a1 1 0 0 1 -1 1h-6a1 1 0 0 1 -1-1v-34h-44v34a1 1 0 0 1 -1 1h-6a1 1 0 0 1 -1-1v-44a1 1 0 0 1 .57-.9l29-14a1 1 0 0 1 .86 0l29 14a1 1 0 0 1 .57.9z" fill="#3498db"/><rect fill="#2980b9" height="6" rx="1" width="48" x="8" y="23.993"/><path d="m35.11 20.611a1.007 1.007 0 0 1 -.351-.064 7.847 7.847 0 0 0 -5.518 0 1 1 0 0 1 -.7-1.873 9.855 9.855 0 0 1 6.922 0 1 1 0 0 1 -.351 1.937z" fill="#ffcc5c"/><path d="m37.979 16.51a1 1 0 0 1 -.459-.112 12 12 0 0 0 -11.04 0 1 1 0 1 1 -.92-1.775 14 14 0 0 1 12.88 0 1 1 0 0 1 -.461 1.887z" fill="#f7931e"/><path d="m40.789 12.5a1 1 0 0 1 -.518-.145 15.892 15.892 0 0 0 -16.542 0 1 1 0 0 1 -1.038-1.71 17.888 17.888 0 0 1 18.618 0 1 1 0 0 1 -.52 1.855z" fill="#f15a24"/><rect fill="#ffe184" height="14" rx="1" width="14" x="25" y="32.004"/><path d="m29 31.994v5.006a1 1 0 0 0 1 1h4a1 1 0 0 0 1-1v-5.01z" fill="#f7931e"/><rect fill="#ffe184" height="14" rx="1" width="14" x="33" y="48.004"/><path d="m37 47.994v5.006a1 1 0 0 0 1 1h4a1 1 0 0 0 1-1v-5.01z" fill="#f7931e"/><rect fill="#ffe184" height="14" rx="1" width="14" x="17" y="48.004"/><path d="m21 47.994v5.006a1 1 0 0 0 1 1h4a1 1 0 0 0 1-1v-5.01z" fill="#f7931e"/></g></svg>