<svg id="Capa_1" enable-background="new 0 0 512 512" height="512" viewBox="0 0 512 512" width="512" xmlns="http://www.w3.org/2000/svg"><path d="m331 256c0-41.355-33.645-75-75-75s-75 33.645-75 75 33.645 75 75 75 75-33.645 75-75zm-135 0c0-33.084 26.916-60 60-60s60 26.916 60 60-26.916 60-60 60-60-26.916-60-60z"/><path d="m361 256c0-57.897-47.103-105-105-105s-105 47.103-105 105 47.103 105 105 105 105-47.103 105-105zm-195 0c0-49.626 40.374-90 90-90s90 40.374 90 90-40.374 90-90 90-90-40.374-90-90z"/><path d="m505.733 203.602-48.595-8.099c-4.05-13.479-9.463-26.54-16.141-38.942l28.641-40.098c2.132-2.983 1.793-7.07-.799-9.663l-63.639-63.639c-2.593-2.593-6.68-2.931-9.663-.8l-40.098 28.641c-12.402-6.678-25.463-12.091-38.942-16.141l-8.1-48.594c-.602-3.617-3.731-6.267-7.397-6.267h-90c-3.667 0-6.795 2.65-7.398 6.267l-8.099 48.594c-13.479 4.049-26.541 9.463-38.942 16.141l-40.098-28.641c-2.982-2.131-7.07-1.793-9.663.8l-63.639 63.639c-2.593 2.592-2.931 6.679-.8 9.663l28.641 40.098c-6.678 12.402-12.092 25.463-16.141 38.942l-48.594 8.099c-3.617.603-6.267 3.731-6.267 7.398v90c0 3.667 2.65 6.795 6.267 7.398l48.594 8.099c4.049 13.479 9.463 26.541 16.141 38.942l-28.641 40.098c-2.131 2.983-1.793 7.07.8 9.663l63.639 63.639c2.593 2.592 6.679 2.931 9.663.8l40.098-28.641c12.402 6.678 25.463 12.092 38.942 16.141l8.099 48.594c.603 3.617 3.731 6.267 7.398 6.267h90c3.666 0 6.795-2.65 7.397-6.267l8.1-48.595c13.424-4.037 26.477-9.456 38.917-16.158l40.123 28.659c2.983 2.131 7.07 1.793 9.663-.8l63.64-63.639c2.592-2.592 2.931-6.679.8-9.663l-28.66-40.124c6.702-12.442 12.122-25.494 16.158-38.917l48.596-8.099c3.616-.602 6.266-3.73 6.266-7.397v-90c0-3.667-2.65-6.795-6.267-7.398zm-8.733 91.044-46.993 7.832c-2.881.48-5.222 2.59-5.997 5.407-4.237 15.388-10.43 30.303-18.403 44.33-1.444 2.54-1.282 5.688.417 8.066l27.717 38.804-54.654 54.654-38.804-27.717c-2.378-1.698-5.525-1.863-8.066-.417-14.025 7.974-28.94 14.166-44.33 18.403-2.816.776-4.927 3.116-5.407 5.998l-7.834 46.994h-77.293l-7.832-46.993c-.48-2.882-2.59-5.223-5.407-5.998-15.469-4.259-30.393-10.445-44.355-18.384-2.541-1.444-5.689-1.282-8.067.417l-38.778 27.698-54.654-54.654 27.698-38.778c1.699-2.378 1.861-5.526.417-8.067-7.939-13.962-14.125-28.886-18.384-44.355-.775-2.817-3.116-4.927-5.998-5.407l-46.993-7.833v-77.293l46.993-7.832c2.882-.48 5.223-2.59 5.998-5.407 4.259-15.469 10.445-30.393 18.384-44.355 1.445-2.541 1.282-5.689-.417-8.067l-27.698-38.778 54.654-54.654 38.778 27.698c2.378 1.699 5.526 1.86 8.067.417 13.962-7.939 28.886-14.125 44.355-18.384 2.817-.775 4.927-3.116 5.407-5.998l7.833-46.993h77.293l7.832 46.993c.48 2.882 2.591 5.222 5.407 5.998 15.47 4.26 30.394 10.445 44.355 18.384 2.541 1.445 5.688 1.282 8.066-.417l38.778-27.698 54.654 54.654-27.698 38.778c-1.699 2.378-1.861 5.526-.417 8.067 7.939 13.962 14.125 28.886 18.385 44.355.775 2.817 3.116 4.927 5.997 5.407l46.994 7.833z"/><path d="m256 76c-41.597 0-82.172 14.527-114.25 40.905-3.199 2.631-3.66 7.357-1.029 10.557 2.631 3.198 7.357 3.66 10.557 1.029 29.4-24.177 66.592-37.491 104.722-37.491 90.981 0 165 74.019 165 165s-74.019 165-165 165-165-74.019-165-165c0-39.409 14.123-77.56 39.768-107.426 2.698-3.143 2.338-7.877-.805-10.576-3.142-2.698-7.877-2.338-10.576.805-27.979 32.584-43.387 74.205-43.387 117.197 0 99.252 80.748 180 180 180s180-80.748 180-180-80.748-180-180-180z"/></svg>