<svg height="512" viewBox="0 0 512 512" width="512" xmlns="http://www.w3.org/2000/svg"><path d="m74 208h156v75h-156z" fill="#466089"/><path d="m185 268v30l-33 30-33-30v-30z" fill="#fcb98b"/><g fill="#ffd3b3"><path d="m84 129v80.01a68 68 0 0 0 136 0v-80.01z"/><path d="m230 208h-10v-40h10a10 10 0 0 1 10 10v20a10 10 0 0 1 -10 10z"/><path d="m74 208h10v-40h-10a10 10 0 0 0 -10 10v20a10 10 0 0 0 10 10z"/></g><path d="m185 298-33 30-33-30-76.219 13.985a40 40 0 0 0 -32.781 39.343v124.672h284v-124.672a40 40 0 0 0 -32.781-39.343z" fill="#6e83b7"/><path d="m61 436h10v40h-10z" fill="#466089" transform="matrix(-1 0 0 -1 132 912)"/><path d="m185 298-33 30-33-30 33 178z" fill="#d3d3d3"/><path d="m152 67h-18a60 60 0 0 0 -60 60v41h10v44l14.367-44h28.633a25 25 0 0 0 25-25z" fill="#6e83b7"/><path d="m152 67h18a60 60 0 0 1 60 60v41h-10v44l-14.367-44h-28.633a25 25 0 0 1 -25-25z" fill="#6e83b7"/><path d="m185 298 46 46-33 38 2 49-48 45z" fill="#466089"/><path d="m119 298-46 46 33 38-2 49 48 45z" fill="#466089"/><path d="m119 288h66v10l-33 30-33-30z" fill="#80d6fb"/><path d="m126 290v14.364l26 23.636 26-23.636v-14.364a11.986 11.986 0 0 0 -.181-2h-51.638a11.986 11.986 0 0 0 -.181 2z" fill="#46bee8"/><rect fill="#80d6fb" height="50" rx="6" width="40" x="132" y="284"/><path d="m152 334v57h-19l5-57z" fill="#80d6fb"/><path d="m146 334h6v57h-6z" fill="#46bee8"/><path d="m152 334v75h19l-5-75z" fill="#80d6fb"/><path d="m201 40h-98l-17 51 66 52 66-52z" fill="#80d6fb"/><path d="m113 40 39 14 39-14z" fill="#46bee8"/><path d="m147 49h10v37h-10z" fill="#46bee8"/><path d="m393 237v19l-33 41-33-41v-19z" fill="#ffd3b3"/><path d="m327 250.875a79.989 79.989 0 0 0 66 0v-13.875h-66z" fill="#fcb98b"/><path d="m292 98v80.01a68 68 0 0 0 136 0v-80.01z" fill="#ffd3b3"/><path d="m438 177h-10v-40h10a10 10 0 0 1 10 10v20a10 10 0 0 1 -10 10z" fill="#ffd3b3"/><path d="m282 177h10v-40h-10a10 10 0 0 0 -10 10v20a10 10 0 0 0 10 10z" fill="#ffd3b3"/><path d="m407 267-16 60-31-30-31 30-16-60-63.24 13.314a40 40 0 0 0 -31.76 39.142v156.544h284v-156.544a40 40 0 0 0 -31.76-39.142z" fill="#6e83b7"/><path d="m441 405h10v71h-10z" fill="#466089"/><path d="m269 405h10v71h-10z" fill="#466089" transform="matrix(-1 0 0 -1 548 881)"/><path d="m391 327-31-30-31 30 31 149z" fill="#d3d3d3"/><path d="m360 333h7l8.58-20.922-15.58-15.078-15.58 15.078 8.58 20.922z" fill="#ffb0aa"/><path d="m327 256-14 11 16 60 31-30z" fill="#edeff1"/><path d="m393 256 14 11-16 60-31-30z" fill="#edeff1"/><path d="m375 36h-33a60 60 0 0 0 -60 60v41h10v44l14.367-44h43.633a40 40 0 0 0 40-40v-46a15 15 0 0 0 -15-15z" fill="#6e83b7"/><path d="m398 51h-8v46a40 40 0 0 0 22.282 35.863l15.718 48.137v-44h10v-46a40 40 0 0 0 -40-40z" fill="#6e83b7"/><path d="m367 333 8 71-15 72-15-72 8-71z" fill="#ffb0aa"/><path d="m367.563 337.999-.563-4.999h-14l-.563 4.999z" fill="#ff7b7b"/><path d="m407 267 32 46-32 66 18 18-65 79 31-149z" fill="#466089"/><path d="m313 267-32 36 32 76-18 18 65 79-31-149z" fill="#466089"/></svg>