<?xml version="1.0" encoding="iso-8859-1"?>
<!-- Generator: Adobe Illustrator 19.0.0, SVG Export Plug-In . SVG Version: 6.00 Build 0)  -->
<svg version="1.1" id="Capa_1" xmlns="http://www.w3.org/2000/svg" xmlns:xlink="http://www.w3.org/1999/xlink" x="0px" y="0px"
	 viewBox="0 0 511.996 511.996" style="enable-background:new 0 0 511.996 511.996;" xml:space="preserve">
<g>
	<g>
		<path d="M511.656,129.14c-1.867-6.448-9.73-6.307-15.067-7.062c-5.747-0.813-13.025-3.284-18.537-0.319
			c-5.209,2.8-8.534,9.537-11.318,14.479c-3.399,6.033-6.616,12.807-8.87,19.332c-2.159,6.252-4.166,12.466-5.287,19.01
			c-1.287,7.513-3.729,14.59-3.868,22.316c-0.286,15.742,0,32.367,3.853,47.686c1.854,7.379,2.44,12.979,8.029,18.639
			c0.541,0.549,1.115,1.059,1.711,1.543c-2.162,6.023-2.056,12.916-3.037,19.117c-1.275,8.074-2.603,16.338-3.183,24.512
			c-0.079-0.016-0.156-0.035-0.235-0.051c-8.688-1.708-18.029-3.535-26.918-2.975c-7.774,0.49-15.637,0.949-23.266,2.639
			c-6.168,1.365-12.087,1.988-17.521,4.371c-0.11-5.221-0.768-10.345-0.746-15.625c0.029-6.727-0.592-13.355-0.673-20.035
			c-0.077-6.303,0.249-12.603-0.278-18.89c-1.007-11.999-0.662-23.896-2.431-35.835c-0.827-5.586-0.541-12.424-3.026-17.596
			c-2.117-4.406-6.316-5.934-10.832-6.951c-7.639-1.721-15.328-2.299-23.043-2.564c-0.027-0.061-0.039-0.118-0.068-0.18
			c-1.969-4.162-7.406-6.051-10.908-8.758c-2.439-1.885-5.088-3.594-7.813-5.08c-0.302-2.623,0.271-5.984,0.258-8.277
			c-0.018-3.43-0.043-6.805-0.551-10.203c-0.297-1.987-0.104-4.651-0.594-6.528c0.014-0.101,0.02-0.174,0.03-0.265
			c8.73-0.619,18.022-4.828,21.995-12.146c3.016-5.554,4.244-11.506,4.494-17.575c0.088-1.428,0.137-2.879,0.128-4.377
			c-0.007-1.154-0.12-2.27-0.277-3.368c-0.229-3.188-0.63-6.375-1.099-9.521c-0.171-1.149-0.324-2.292-0.475-3.43
			c-0.076-1.376-0.154-2.753-0.287-4.126c-0.605-6.334-0.822-12.932-3.892-18.713c-0.915-1.725-1.998-2.836-3.22-3.539
			c-0.48-0.508-1.008-0.695-1.516-0.65c-2.072-0.623-4.468-0.419-7.121-0.064c-4.797,0.643-9.494,1.106-14.293,1.51
			c-4.898,0.413-11.321,0.379-15.255,3.871c-4.076,3.621-3.778,10.592-4.483,15.547c-0.896,6.295-0.391,12.58-1.133,18.9
			c-0.568,4.842-0.587,9.7,0.154,14.526c1.559,10.153,7.458,20.095,18.059,22.579c-0.025,0.27-0.048,0.547-0.068,0.841
			c-0.408,5.827,0.404,11.739,0.381,17.608c-0.006,1.645-0.272,3.82-0.348,6c-1.51,4.143-6.713,6.691-10.352,9.013
			c-2.035,1.298-4.705,1.471-5.41,4.202c-0.018,0.065-0.023,0.129-0.037,0.194c-5.193-0.009-10.46,0.222-15.771-0.022
			c-0.052-0.002-0.101-0.008-0.151-0.01c0.193-4.986,0.849-9.885,0.503-14.927c-0.397-5.796-0.753-11.377-0.765-17.218
			c-0.025-12.301-0.061-24.432-1.213-36.666c-0.442-4.703-1.042-10.034-3.382-14.235c-2.002-3.593-5.472-5.952-7.53-9.527
			c-2.57-4.461-1.467-10.564-2.12-15.524c-0.505-3.823,0.222-7.747,0.266-11.592c0.053-4.573-0.36-8.951-1.022-13.462
			c-0.061-0.421-0.123-0.854-0.029-1.27c0.096-0.421,0.342-0.788,0.554-1.165c1.659-2.934,1.204-6.195,1.182-9.404
			c-0.024-3.451,0.406-6.868-0.394-10.277c-0.275-1.17-1.439-2.492-2.678-2.678c-6.032-0.903-12.146-0.082-18.23-0.396
			c-4.447-0.23-10.666-1.016-13.94,2.789c-6.906,8.033,0.271,28.235,0.149,37.771c-0.074,5.916-1.664,11.41-1.232,17.311
			c0.441,6.033-2.443,8.814-5.802,13.387c-3.444,4.689-3.801,9.561-4.7,15.121c-0.923,5.713-1.408,11.461-2.246,17.154
			c-0.932,6.344-0.051,13.322-0.033,19.744c0.018,6.94-0.67,13.754-0.597,20.705c0.047,4.439-0.189,9.381,0.44,14.02
			c-0.332,0.017-0.663,0.035-0.994,0.05c-4.058,0.186-9,1.796-12.936,0.603c-3.727-1.131-6.635-4.059-9.861-6.063
			c-3.078-1.912-6.783-4.023-8.098-7.627c-0.075-2.18-0.342-4.355-0.35-6c-0.021-5.869,0.79-11.781,0.382-17.608
			c-0.021-0.294-0.043-0.571-0.067-0.841c10.6-2.484,16.5-12.426,18.059-22.579c0.797-5.188,0.438-10.54,0.025-15.745
			c-0.467-5.881-0.171-11.83-1.004-17.682c-0.705-4.955-0.407-11.926-4.484-15.547c-3.932-3.492-10.355-3.458-15.254-3.871
			c-4.799-0.403-9.496-0.867-14.293-1.51c-4.684-0.625-9.334-0.498-11.857,4.254c-3.424,6.452-3.19,13.85-4.168,20.873
			c-1.836,13.192-3.862,28.025,2.761,40.237c3.974,7.317,13.265,11.526,21.996,12.146c0.011,0.091,0.017,0.164,0.029,0.267
			c-1.11,4.259-1.372,8.714-1.36,13.099c0.005,1.307,1.359,11.426,0.475,11.908c-2.725,1.486-5.373,3.195-7.813,5.08
			c-3.502,2.707-8.939,4.596-10.909,8.758c-0.028,0.062-0.04,0.119-0.067,0.18c-7.715,0.266-15.404,0.844-23.043,2.564
			c-4.517,1.018-8.715,2.545-10.832,6.951c-2.486,5.172-2.199,12.01-3.027,17.596c-1.768,11.939-1.423,23.836-2.43,35.835
			c-0.527,6.287-0.201,12.587-0.278,18.89c-0.081,6.68-0.702,13.309-0.673,20.035c0.022,5.28-0.637,10.404-0.746,15.625
			c-5.435-2.383-11.354-3.006-17.521-4.371c-7.628-1.689-15.492-2.148-23.268-2.639c-8.887-0.561-18.229,1.267-26.916,2.975
			c-0.079,0.016-0.156,0.035-0.235,0.051c-0.581-8.174-1.907-16.438-3.185-24.512c-0.98-6.201-0.873-13.094-3.035-19.117
			c0.596-0.484,1.17-0.994,1.711-1.543c5.589-5.66,6.175-11.26,8.029-18.639c3.852-15.318,4.139-31.943,3.853-47.686
			c-0.14-7.727-2.581-14.804-3.868-22.316c-1.121-6.544-3.129-12.758-5.287-19.01c-2.254-6.525-5.471-13.299-8.869-19.332
			c-2.785-4.941-6.11-11.679-11.319-14.479c-5.513-2.965-12.79-0.494-18.537,0.319c-5.339,0.755-13.2,0.613-15.067,7.062
			c-0.646,2.234-0.236,4.697,0.121,6.936c0.678,4.246,0.746,8.38,1.219,12.609c0.855,7.684,1.787,15.379,2.668,23.09
			c1.946,17.045,5.497,33.845,8.202,50.777c0.685,4.289,1.151,8.57,1.677,12.85c0.271,5.929,0.699,11.846,1.402,17.683
			c0.627,5.222,1.168,12.206,4.583,16.532c1.417,1.796,3.174,2.629,5.072,2.92c0.112,2.466,0.646,4.921,0.843,7.496
			c0.324,4.244,0.675,8.596,1.338,12.836c1.254,8.018,2.001,16.295,3.641,24.271c-0.033,0.014-0.066,0.027-0.099,0.041
			c-13.217,5.453-21.534,23.012-9.791,34.363c2.831,2.736,6.657,3.854,10.698,4.295c-0.694,1.812-1.252,4.582-1.323,5.303
			c-0.499,5.088-1.44,10.068-2.238,15.128c-1.577,9.996-2.319,20.015-3.337,30.071c-0.936,9.242-2.176,18.389-3.209,27.617
			c-1.064,9.512-3.516,19.203-3.688,28.806c-0.156,8.681,6.559,11.265,14.262,12.233c7.879,0.989,15.695-0.822,17.782-9.373
			c2.067-8.472,3.038-17.465,4.382-26.088c0.632-4.059,1.137-8.098,1.69-12.128c0.306-2.229,0.334-4.211,0.354-6.481
			c0.02-2.359,0.831-4.579,0.879-6.949c0.204-10.113,1.367-20.176,2.697-30.193c0.314-2.38,2.902-27.613,3.989-27.627
			c4.044-0.049,8.087-0.168,12.136-0.409c10.152-0.604,20.479,0.813,30.66-0.278c4.538-0.486,10.316,0.275,15.549-0.243
			c-0.594,6.026-1.024,12.049-0.408,18.009c1.205,11.668,9.92,22.17,22.439,20.882c0.193-0.02,0.377-0.056,0.566-0.081
			c-0.494,3.959-1.256,7.82-2.045,11.758c-1.501,7.471-2.715,15.16-3.89,22.68c-1.067,6.833-1.493,13.793-2.405,20.6
			c-0.395,2.938-0.753,6.098-0.916,9.065c-0.172,3.12-1.113,6.659-0.609,9.737c0.895,5.477,4.871,8.315,9.99,9.448
			c3.709,0.82,6.259,0.134,9.899-0.05c3.786-0.19,6.854-0.085,10.276-1.879c0.207-0.109,0.383-0.269,0.555-0.432
			c0.103-0.015,0.37-0.117,0.906-0.372c1.337-0.636,2.181-1.167,3.084-2.372c1.99-2.656,1.924-6.332,2.254-9.521
			c0.757-7.328,1.574-14.706,1.582-22.063c0.008-7.91,0.453-16.139,1.6-23.976c0.6-4.106,0.303-7.86,0.452-11.981
			c0.101-2.787,0.542-5.545,0.917-8.307c0.027,0.001,0.053,0.005,0.08,0.006c8.326,0.236,15.613-5.299,20.691-12.261
			c0.168,0.383,0.332,0.767,0.527,1.147c1.741,3.388,3.955,6.684,6.752,9.299c5.498,5.145,13.195,8.351,20.619,5.762
			c5.563-1.939,9.652-6.479,12.89-11.309c2.282,5.606,6.29,9.839,13.001,10.74c7.783,1.046,13.771-1.887,17.216-8.938
			c0.886-1.812,1.821-3.757,2.694-5.78c0.182,0.314,0.364,0.629,0.551,0.939c3.514,5.864,8.089,12.003,14.813,14.348
			c7.425,2.589,15.122-0.617,20.619-5.762c2.797-2.615,5.011-5.911,6.751-9.299c0.196-0.381,0.361-0.765,0.529-1.147
			c5.077,6.962,12.364,12.497,20.69,12.261c0.027-0.001,0.053-0.005,0.08-0.006c0.375,2.762,0.816,5.52,0.917,8.307
			c0.149,4.121-0.147,7.875,0.452,11.981c1.146,7.837,1.592,16.065,1.6,23.976c0.008,7.356,0.826,14.734,1.583,22.063
			c0.329,3.189,0.263,6.865,2.253,9.521c0.903,1.205,1.747,1.736,3.085,2.372c0.536,0.255,0.802,0.357,0.905,0.372
			c0.172,0.163,0.348,0.322,0.555,0.432c3.422,1.794,6.49,1.688,10.277,1.879c3.639,0.184,6.188,0.87,9.898,0.05
			c5.119-1.133,9.097-3.972,9.99-9.448c0.504-3.078-0.438-6.617-0.609-9.737c-0.162-2.968-0.521-6.127-0.916-9.065
			c-0.913-6.807-1.338-13.767-2.405-20.6c-1.175-7.52-2.39-15.209-3.89-22.68c-0.79-3.938-1.551-7.799-2.046-11.758
			c0.19,0.025,0.374,0.062,0.567,0.081c12.519,1.288,21.233-9.214,22.439-20.882c0.616-5.96,0.186-11.982-0.408-18.009
			c5.23,0.519,11.012-0.243,15.549,0.243c10.182,1.091,20.508-0.326,30.66,0.278c4.049,0.241,8.092,0.36,12.136,0.409
			c0.447,3.6,1.761,7.232,1.879,10.807c0.161,4.885,0.558,9.808,1.335,14.653c1.707,10.616,3.256,21.637,3.473,32.36
			c0.047,2.37,0.858,4.59,0.879,6.949c0.021,2.271,0.049,4.252,0.354,6.481c0.554,4.03,1.059,8.069,1.69,12.128
			c1.344,8.623,2.314,17.616,4.382,26.088c2.087,8.551,9.904,10.362,17.78,9.373c7.705-0.969,14.418-3.553,14.264-12.233
			c-0.172-9.603-2.623-19.294-3.688-28.806c-1.032-9.229-2.273-18.375-3.209-27.617c-1.017-10.057-1.759-20.075-3.336-30.071
			c-0.798-5.06-1.739-10.04-2.239-15.128c-0.07-0.721-0.629-3.491-1.322-5.303c4.041-0.44,7.867-1.559,10.698-4.295
			c11.743-11.352,3.425-28.91-9.79-34.363c-0.033-0.014-0.066-0.027-0.1-0.041c1.639-7.977,2.387-16.254,3.641-24.271
			c0.662-4.24,1.014-8.592,1.338-12.836c0.196-2.575,0.731-5.03,0.842-7.496c1.898-0.291,3.656-1.124,5.072-2.92
			c3.415-4.326,3.957-11.311,4.585-16.532c0.702-5.837,1.13-11.754,1.4-17.683c0.525-4.279,0.992-8.561,1.678-12.85
			c2.705-16.933,6.256-33.732,8.202-50.777c0.881-7.711,1.812-15.406,2.668-23.09c0.473-4.229,0.541-8.363,1.218-12.609
			C511.892,133.837,512.303,131.374,511.656,129.14z M28.883,262.04c-1.432,0.579-5.807-34.402-6.127-36.666
			c-0.412-2.928-0.558-5.438-1.194-7.687c-1.077-7.604-2.544-15.165-3.72-22.754c-1.99-12.847-4.623-26.188-5.176-39.188
			c-0.25-5.894-0.426-11.858-1.385-17.709c-0.227-1.384-0.339-3.092-0.803-4.417c-0.139-0.4-0.174-0.699-0.167-0.919
			c2.59-1.165,6.735-1.021,9.339-1.485c2.48-0.441,5.878-1.488,8.371-0.904c2.529,0.592,4.734,3.709,6.055,5.877
			c2.838,4.658,4.922,9.77,7.265,14.691c5.047,10.6,6.927,21.509,9.802,32.782c3.279,12.86,2.46,28.03,0.68,41.09
			c-0.82,6.017-1.375,12.126-2.77,18.01c-1.633,6.896-1.818,11.571-8.536,15.343c-2.938,1.65-5.808,2.496-9.044,3.275
			C30.644,261.579,29.668,261.702,28.883,262.04z M47.195,310.772c-2.617,0.883-5.201,1.875-7.762,2.912
			c-0.096-6.598-1.844-13.752-3.082-19.885c-1.451-7.184-1.508-14.866-3.246-22.053c0.388-0.092,0.773-0.184,1.15-0.273
			c2.75-0.656,5.578-1.486,8.277-2.598c0.066,0.85,0.148,1.7,0.21,2.549c0.302,4.161,0.538,8.376,1.05,12.514
			C44.899,292.88,46.476,301.811,47.195,310.772z M53.293,358.08c-2.398,14.25-2.555,28.78-4.561,43.085
			c-2.308,16.463-2.577,32.877-5.992,49.301c-0.787,3.781-1.264,7.58-1.932,11.375c-0.793,4.514-4.662,3.965-8.678,3.123
			c-1.232-0.258-2.86-1.299-4.176-1.525c0.025-0.02,0.051-0.04,0.072-0.064c0.295-0.344,0.075-2.025,0.106-2.52
			c0.281-4.449,1.052-8.744,1.862-13.112c3.119-16.821,3.637-34.256,5.311-51.27c0.523-5.337,0.672-10.657,1.252-16.021
			c0.551-5.103,1.672-10.326,1.916-15.453c0.136-2.853,0.619-5.984,0.593-8.895c2.049-0.023,4.038-0.082,5.862-0.057
			c2.982,0.041,5.957,0.082,8.927,0.109C53.619,356.803,53.4,357.446,53.293,358.08z M123.607,343.559
			c-1.074,0.038-2.133,0.061-3.048,0.174c-4.229,0.525-8.45-0.166-12.688,0.273c-7.76,0.807-15.473,0.342-23.248,0.742
			c-16.107,0.828-32.46,1.357-48.669,1.313c-2.854-0.007-6.831-0.007-8.872-2.236c-2.011-2.198-2.725-5.292-1.57-7.968
			c1.046-2.426,3.139-5.592,5.195-7.325c2.43-2.048,6.055-3.001,8.881-4.465c3.196-1.655,6.791-2.089,10.152-3.325
			c4.045-1.487,7.781-2.564,12.042-3.336c7.081-1.282,15.017-2.864,22.226-2.068c7.194,0.793,14.184,0.98,21.319,2.267
			c4.169,0.751,8.349,1.103,12.519,1.935c2.017,0.403,4.016,1.07,6.027,1.473c-0.016,4.773-0.088,9.547,0.004,14.318
			C123.931,338.063,123.809,340.808,123.607,343.559z M311.071,102.026c0.235-2.276,0.363-8.66,1.503-10.604
			c1.352-2.307,3.605-1.828,6.072-1.999c3.979-0.275,7.938-0.631,11.875-1.245c2.535-0.396,5.134-0.819,7.705-1.032
			c0.752-0.063,1.537-0.291,1.805-0.124c0.512,0.319,1.267,3.247,1.546,4.165c1.542,5.063,1.913,10.451,2.229,15.736
			c-2.171-0.938-4.234-1.553-5.227-1.703c-4.48-0.677-8.279,0.219-12.117,2.742c-2.168,1.428-4.262,4.121-6.682,4.973
			c-3.291,1.156-5.999-1.104-8.432-2.979c-0.147-0.113-0.311-0.191-0.473-0.268C310.863,107.142,310.806,104.599,311.071,102.026z
			 M318.737,144.828c-4.925-2.75-7.61-8.132-8.464-13.54c-0.657-4.163-0.505-8.449-0.014-12.641c3.949,1.902,9.4,2.592,11.729,1.639
			c4.685-1.919,7.89-7.449,13.106-8.16c2.898-0.395,6.697,0.674,9.589,2.316c0.323,1.412,0.676,2.818,0.851,4.261
			c1.092,9.005-0.615,20.272-9.551,24.735C330.487,146.184,324.418,147.999,318.737,144.828z M317.256,193.397
			c2.113-1.506,4.445-2.963,6.325-4.801c0.671,0.332,1.314,0.63,0.635,0.196c0.14,0.089,2.94,1.933,4.102,2.694
			c1.452,0.955,2.853,2.02,4.272,3.055c-0.49-0.012-0.979-0.023-1.47-0.037c-4.308-0.126-8.973-0.062-13.397-0.377
			c-0.377-0.082-0.752-0.158-1.129-0.23C316.814,193.726,317.035,193.556,317.256,193.397z M247.511,42.058
			c3.316-0.35,6.784,0.282,10.117,0.258c2.94-0.023,5.891-0.393,8.828-0.258c0.169,3.133-0.425,6.356-0.552,9.536
			c-3.451-0.729-7.656-0.063-10.756,0.037c-3.436,0.112-7.275,0.769-10.535,1.878c-0.149-2.029-0.037-4.033-0.088-6.105
			C244.445,44.15,243.666,42.464,247.511,42.058z M245.533,89.328c-0.014-0.14-0.027-0.279-0.039-0.42
			c-0.393-4.158,0.235-8.3,0.402-12.45c0.129-3.218-2.587-13.394,0.252-15.418c3.516-2.508,9.746-1.48,13.737-1.488
			c2.917-0.006,4.396-0.563,4.526,2.827c0.305,7.888,0.705,15.771,1.1,23.653c0.195,3.877,0.603,7.816,0.551,11.698
			c-0.019,1.36-0.266,2.183,0.087,3.562c0.135,0.524,2.159,3.996,2.044,4.164c-0.545,0.79-1.126,1.558-1.83,2.252
			c-2.795,2.758-6.888,3.477-10.735,3.239c-5.411-0.334-8.436-3.321-11.79-6.586C246.881,99.247,246.08,94.909,245.533,89.328z
			 M234.408,135.71c0.581-5.111,1.034-10.21,1.732-15.328c0.34-2.494,0.451-5.144,1.568-7.451c0.701-1.445,1.744-2.729,2.791-3.99
			c0.314,0.494,0.652,0.965,0.984,1.395c3.145,4.078,8.246,6.447,13.256,7.173c5.018,0.727,10.72,0.013,14.816-3.126
			c1.053-0.806,2.189-1.78,3.213-2.877c0.508,0.398,1.02,0.792,1.44,1.297c2.035,2.441,2.505,6.357,2.894,9.402
			c0.886,6.937,1.168,13.936,1.249,20.939c-3.114,0.115-6.425-0.162-9.208-0.514c-4.734-0.597-9.684-0.841-14.482-1.139
			c-6.418-0.396-14.289-0.24-20.735,1.973C233.982,140.872,234.117,138.284,234.408,135.71z M233.465,166.537
			c0.681-6.347,0.438-12.747,0.428-19.123c2.725,0.66,5.197,0.328,8.479,0.066c5.779-0.462,11.916,0.582,17.655,1.095
			c5.251,0.468,10.456,0.876,15.735,0.977c0.824,0.016,1.719,0.086,2.624,0.125c-0.005,3.006-0.026,6.01-0.032,9.006
			c-0.011,5.182,0.021,10.221,0.359,15.328c-2.956,0.127-6.031-0.176-8.92-0.154c-5.215,0.038-10.528,0.472-15.728,0.027
			c-6.742-0.575-14.204-1.15-20.898,0.633C233.144,171.776,233.189,169.093,233.465,166.537z M233.254,179.991
			c3.012,0.291,6.227,0.172,8.992,0.24c5.723,0.139,11.344,0.94,17.05,1.082c5.658,0.141,11.329-0.115,16.983,0.107
			c0.904,0.035,1.846,0.092,2.768,0.084c-0.08,3.504-0.5,6.971-0.74,10.475c-0.289-0.004-0.578-0.01-0.871,0
			c-3.578,0.109-7.154,0.146-10.735,0.17c-6.888,0.043-13.603-0.566-20.464-0.502c-4.534,0.043-9.039,0.236-13.536,0.458
			C233.305,188.204,233.318,184.089,233.254,179.991z M170.414,91.186c0.279-0.918,1.035-3.846,1.547-4.165
			c0.267-0.167,1.052,0.062,1.805,0.124c2.572,0.213,5.169,0.637,7.705,1.032c3.938,0.614,7.896,0.97,11.875,1.245
			c2.467,0.171,4.721-0.308,6.072,1.999c1.141,1.944,1.268,8.328,1.502,10.604c0.268,2.573,0.208,5.116,0.195,7.662
			c-0.162,0.076-0.325,0.154-0.473,0.268c-2.434,1.875-5.141,4.135-8.432,2.979c-2.42-0.852-4.514-3.545-6.683-4.973
			c-3.837-2.523-7.636-3.419-12.117-2.742c-0.991,0.15-3.056,0.766-5.227,1.703C168.502,101.638,168.873,96.25,170.414,91.186z
			 M172.596,141.535c-0.046-0.029-0.086-0.063-0.131-0.093c-5.783-5.53-6.908-15.326-6.008-22.74
			c0.176-1.441,0.527-2.848,0.852-4.26c2.891-1.643,6.689-2.711,9.588-2.316c5.217,0.711,8.422,6.241,13.106,8.16
			c2.329,0.953,7.78,0.264,11.729-1.639c0.49,4.191,0.643,8.478-0.014,12.641c-1.533,9.701-8.072,16.045-17.141,15.326
			C180.502,145.052,176.293,143.953,172.596,141.535z M183.674,191.487c1.161-0.762,3.962-2.605,4.102-2.694
			c-0.678,0.434-0.035,0.136,0.635-0.196c1.881,1.838,4.213,3.295,6.326,4.801c0.284,0.203,0.568,0.421,0.852,0.645
			c-4.803,0.439-9.981,0.324-14.717,0.463c-0.49,0.014-0.979,0.025-1.469,0.037C180.822,193.507,182.222,192.442,183.674,191.487z
			 M135.744,293.622c-0.029-5.125,0.467-10.041,0.699-15.125c0.283-6.216-0.336-12.461,0.074-18.675
			c0.71-10.753,1.178-21.395,2.07-32.101c0.377-4.521,0.868-9.113,1.566-13.605c0.313-2.002,0.107-3.98,1.486-5.104
			c1.865-1.518,6.637-1.473,9.031-1.84c10.92-1.67,21.816-1.297,32.734-2.547c5.328-0.609,10.744-0.113,16.025-1.029
			c10.68-1.851,21.98-1.412,32.826-1.637c13.479-0.279,26.965-0.277,40.443-0.001c6.84,0.141,13.676,0.353,20.511,0.632
			c11.655,0.479,23.801,0.711,35.374,2.035c10.918,1.25,21.814,0.877,32.734,2.547c2.395,0.367,7.165,0.322,9.031,1.84
			c1.379,1.123,1.174,3.102,1.486,5.104c0.698,4.492,1.189,9.084,1.567,13.605c0.892,10.706,1.36,21.348,2.069,32.101
			c0.411,6.214-0.209,12.459,0.075,18.675c0.231,5.084,0.729,10,0.697,15.125c-0.033,5.511,0.148,11.02,0.335,16.526
			c0.081,2.399,0.961,5.196-0.975,6.378c-3.794,2.314-9.633-0.59-13.851,0.719c-6.64,2.059-14.05,3.814-21.014,4.757
			c-8.015,1.083-16.333,1.404-24.409,1.528c-8.105,0.125-16.84-0.202-24.756-2.097c-16.314-3.905-32.428-6.192-49.188-4.816
			c-17.901,1.47-35.567,5.288-53.423,7.312c-9.679,1.096-19.268,1.678-29.041,1.704c-5.252,0.015-10.203-0.917-15.348-1.844
			c-2.803-0.505-6.435-0.696-9.515-1.722C135.228,312.558,135.801,303.153,135.744,293.622z M135.014,327.036
			c3.159,1.438,6.725,2.281,9.617,2.967c8.809,2.085,17.307,2.346,26.33,2.229c18.059-0.233,36.208-3.396,53.996-6.374
			c8.593-1.439,17.438-2.809,26.169-2.796c3.987,0.005,7.905,0.675,11.886,0.775c5.008,0.126,10.4,0.722,15.301,1.802
			c4.414,0.972,8.721,2.426,13.129,3.436c4.277,0.979,8.437,1.023,12.763,1.424c8.372,0.778,16.204,0.467,24.591,0.108
			c16.234-0.692,31.834-5.954,48.16-6.367c0.009,0.876,0.021,1.752,0.021,2.631c-0.001,4.251,0.142,8.463,0.341,12.663
			c-16.717-0.664-32.656,3.951-49.324,4.428c-8.59,0.245-17.121,1.945-25.729,1.256c-4.473-0.357-8.947-0.268-13.418-0.583
			c-4.812-0.339-9.546-1.424-14.348-1.917c-8.344-0.859-16.546-2.369-24.867-3.316c-4.242-0.482-8.055,0.455-12.268,0.584
			c-4.396,0.133-8.588,0.348-12.979,0.742c-8.29,0.746-16.699,2.448-24.987,2.805c-8.145,0.35-16.247-0.098-24.367-0.021
			c-4.422,0.042-8.908,0.624-13.322,0.231c-4.174-0.371-8.323-1.014-12.485-1.438c-3.708-0.379-7.896-1.354-11.599-1.203
			c-1.033,0.043-2.033,0.005-3.027-0.018C134.834,336.424,135.011,331.753,135.014,327.036z M166.22,402.182
			c-0.03,0.243-0.058,0.486-0.085,0.729c-1.229,10.889-2.086,21.954-2.574,32.895c-0.354,7.795-0.676,15.406-1.357,23.18
			c-0.172,1.966-0.193,3.91-0.418,5.884c-0.02,0.178-0.022,0.383,0.108,0.502c-3.408,2.347-7.344,1.858-11.307,2.151
			c-1.432,0.105-4.515,0.843-5.118-1.077c-0.22-0.697-0.073-1.449,0.056-2.169c0.554-3.09,0.494-6.189,0.837-9.293
			c0.787-7.162,1.563-14.407,2.152-21.623c1.075-13.189,4.458-26.195,4.775-39.42c0.122-5.08,4.698-7.607,7.353-11.898
			c-0.908,1.469,4.473,7.801,5.334,8.701c0.368,0.384,0.758,0.768,0.967,1.258C168.136,394.797,166.55,399.294,166.22,402.182z
			 M366.204,467.07c-0.845,0.936-3.811,0.524-4.802,0.451c-4.525-0.335-7.561-0.593-11.693-2.296
			c0.205,0.061,0.409,0.121,0.613,0.18c-1.839-9.508-1.453-19.936-1.891-29.6c-0.391-8.649-1.137-17.277-1.912-25.899
			c-0.389-4.312-0.785-8.624-1.151-12.938c-0.104-1.224-0.871-3.705-0.476-4.879c0.462-1.371,2.574-2.942,3.434-4.194
			c1.266-1.839,2.29-3.776,3.025-5.853c2.096,3.389,4.615,6.531,7.705,8.775c-1.545,14.156,3.275,28.479,4.423,42.543
			c0.589,7.216,1.364,14.461,2.153,21.623c0.324,2.955,0.26,5.918,0.663,8.855C366.498,465.315,367.129,466.048,366.204,467.07z
			 M368.425,383.134c-3.265-0.174-7.039-4.061-8.797-6.543c-2.298-3.244-3.637-6.452-5.004-9.172
			c-1.14-2.266-4.439-3.008-6.531-1.713c-6.19,3.83-4.218,13.303-9.273,18.415c-7.608,7.696-18.688-8.636-20.65-14.903
			c-1.594-5.088-8.151-4.646-9.905,0c-2.266,6.006-2.436,11.912-7.213,16.841c-3.32,3.425-8.311,6.169-12.713,3.104
			c-3.619-2.521-5.93-6.791-8.113-10.502c-2.398-4.08-3.123-9.184-5.674-13.105c-1.681-2.584-5.912-3.666-7.338,0.131
			c-2.2,5.863-3.524,11.939-5.955,17.761c-0.969,2.321-1.923,5.546-4.399,6.632c-2.903,1.273-7.198-0.025-8.979-2.477
			c-3.185-4.381-1.919-9.715-2.114-14.727c-0.128-3.271-1.52-11.655-6.814-9.047c-1.422,0.701-2.132,2.307-2.594,3.822
			c-1.079,3.539-2.711,7.814-4.591,11.01c-2.183,3.711-4.493,7.98-8.112,10.502c-4.403,3.064-9.393,0.32-12.713-3.104
			c-4.778-4.929-4.947-10.835-7.213-16.841c-1.754-4.646-8.312-5.088-9.905,0c-1.964,6.268-13.042,22.6-20.651,14.903
			c-5.055-5.112-3.082-14.585-9.272-18.415c-2.092-1.295-5.392-0.553-6.531,1.713c-1.366,2.72-2.706,5.928-5.004,9.172
			c-1.759,2.482-5.532,6.369-8.797,6.543c-12.343,0.659-10.322-15.643-9.983-23.396c0.199-4.547,0.478-9.057,0.748-13.559
			c1.412,0.326,2.87,0.26,4.295,0.496c3.407,0.565,6.711,1.273,10.147,1.684c7.467,0.893,14.663,1.712,22.201,1.484
			c3.775-0.114,7.379,0.156,11.132,0.399c4.146,0.268,8.344-0.532,12.526-0.419c8.046,0.218,16.184-1.152,24.172-2.105
			c8.407-1.001,16.79-1.219,25.188-2.002c8.468-0.789,17.392,2.102,25.803,3.028c17.467,1.925,34.626,3.944,52.18,2.585
			c9.231-0.715,18.438-1.447,27.629-2.92c4.971-0.797,10.023-1.287,15.036-1.7c4.331-0.356,8.698-0.027,13.054-0.114
			c0.252,4.366,0.52,8.736,0.713,13.143C378.748,367.491,380.767,383.793,368.425,383.134z M480.695,434.763
			c0.463,4.357,0.499,8.659,1.3,12.979c0.812,4.368,1.582,8.663,1.863,13.112c0.03,0.494-0.189,2.176,0.106,2.52
			c0.021,0.024,0.046,0.045,0.072,0.064c-1.315,0.227-2.943,1.268-4.175,1.525c-4.017,0.842-7.886,1.391-8.679-3.123
			c-0.668-3.795-1.145-7.594-1.931-11.375c-3.416-16.424-3.686-32.838-5.993-49.301c-0.662-4.717-1.283-9.827-1.541-14.571
			c-0.213-3.903-1.25-7.755-1.539-11.655c-0.285-3.859-0.092-7.871-0.661-11.694c-0.255-1.707-0.532-3.458-0.82-5.164
			c-0.106-0.634-0.325-1.277-0.563-1.923c2.97-0.027,5.944-0.068,8.926-0.109c1.825-0.025,3.813,0.033,5.864,0.057
			c-0.027,2.91,0.455,6.042,0.591,8.895c0.244,5.127,1.366,10.351,1.917,15.453c0.58,5.363,0.727,10.684,1.253,16.021
			c0.813,8.284,2.244,16.61,2.417,24.923C479.196,425.821,480.226,430.332,480.695,434.763z M481.285,328.533
			c2.057,1.733,4.148,4.899,5.195,7.325c1.154,2.676,0.44,5.77-1.57,7.968c-2.041,2.229-6.018,2.229-8.871,2.236
			c-16.21,0.044-32.563-0.485-48.67-1.313c-7.775-0.4-15.488,0.064-23.248-0.742c-4.238-0.439-8.459,0.252-12.689-0.273
			c-0.915-0.113-1.973-0.136-3.048-0.174c-0.201-2.752-0.323-5.496-0.271-8.229c0.094-4.771,0.021-9.545,0.006-14.318
			c2.012-0.402,4.01-1.069,6.027-1.473c4.169-0.832,8.35-1.184,12.518-1.935c7.136-1.286,14.126-1.474,21.32-2.267
			c7.209-0.796,15.145,0.786,22.225,2.068c4.262,0.771,7.997,1.849,12.043,3.336c3.361,1.236,6.957,1.67,10.151,3.325
			C475.23,325.532,478.854,326.485,481.285,328.533z M464.796,310.772c0.72-8.961,2.297-17.893,3.402-26.834
			c0.513-4.138,0.749-8.353,1.05-12.514c0.063-0.849,0.144-1.699,0.211-2.549c2.699,1.111,5.528,1.941,8.277,2.598
			c0.377,0.09,0.762,0.182,1.15,0.273c-1.737,7.187-1.795,14.869-3.246,22.053c-1.239,6.133-2.986,13.287-3.082,19.885
			C469.998,312.647,467.414,311.655,464.796,310.772z M500.046,143.78c-0.44,3.973-0.72,7.967-0.72,11.966
			c-0.554,12.999-3.186,26.341-5.177,39.188c-1.176,7.589-2.642,15.149-3.719,22.754c-0.638,2.249-0.782,4.759-1.195,7.687
			c-0.856,6.069-1.062,12.207-1.624,18.307c-0.451,4.899-0.471,13.316-3.344,17.494c-1.721,2.502-10.807-1.745-12.793-3.07
			c-6.717-3.771-6.902-8.447-8.535-15.343c-1.395-5.884-1.95-11.993-2.77-18.01c-1.78-13.06-2.601-28.229,0.68-41.09
			c2.875-11.273,4.756-22.183,9.801-32.782c2.344-4.922,4.428-10.033,7.266-14.693c1.843-3.023,3.925-5.807,7.649-5.969
			c2.86-0.124,5.595,0.703,8.391,1.158c1.999,0.323,7.255-0.677,7.538,2.23c0.004,0.038,0.006,0.075,0.008,0.114
			C501.661,136.861,500.397,140.619,500.046,143.78z"/>
	</g>
</g>
<g>
</g>
<g>
</g>
<g>
</g>
<g>
</g>
<g>
</g>
<g>
</g>
<g>
</g>
<g>
</g>
<g>
</g>
<g>
</g>
<g>
</g>
<g>
</g>
<g>
</g>
<g>
</g>
<g>
</g>
</svg>
